<?xml version="1.0" standalone="no"?>
<!DOCTYPE svg PUBLIC "-//W3C//DTD SVG 20010904//EN"
 "http://www.w3.org/TR/2001/REC-SVG-20010904/DTD/svg10.dtd">
<svg version="1.0" xmlns="http://www.w3.org/2000/svg"
 width="1006.000000pt" height="576.000000pt" viewBox="0 0 1006.000000 576.000000"
 preserveAspectRatio="xMidYMid meet">

<g transform="translate(0.000000,576.000000) scale(0.100000,-0.100000)"
fill="#ffff" stroke="none">
<path d="M9176 5753 c-32 -8 -88 -48 -122 -84 -43 -48 -70 -95 -88 -159 -27
-97 -74 -547 -96 -925 -15 -256 -33 -1073 -27 -1214 l6 -123 -56 -110 c-68
-134 -143 -220 -298 -338 -130 -100 -208 -138 -314 -153 -311 -46 -492 30
-572 242 -43 114 -35 222 20 290 27 33 33 35 132 47 57 7 170 22 251 33 82 12
219 25 305 31 277 17 303 23 303 70 0 81 -102 199 -218 252 -57 26 -83 32
-167 36 -141 6 -255 -10 -372 -54 -125 -47 -190 -89 -275 -178 l-68 -71 -128
0 c-70 0 -133 3 -139 8 -8 6 -11 23 -8 46 3 20 7 105 9 189 l4 152 -69 0 c-97
0 -97 0 -188 -211 -51 -118 -150 -297 -201 -365 -21 -28 -54 -83 -75 -123 -20
-40 -49 -91 -66 -113 -16 -23 -29 -47 -29 -55 0 -8 -12 -13 -32 -13 l-31 0 7
495 8 495 -75 0 -75 0 -42 -57 c-22 -32 -88 -152 -145 -268 -163 -328 -217
-380 -259 -247 -8 26 -17 59 -20 75 -8 35 -23 35 -144 0 -81 -24 -100 -33
-131 -68 -104 -115 -296 -306 -374 -371 -100 -84 -143 -110 -150 -91 -10 26
25 107 66 153 23 27 60 72 82 99 98 125 282 297 360 338 17 8 61 40 99 70 59
47 77 56 125 62 115 13 141 31 141 99 0 26 -7 40 -27 56 -25 20 -37 22 -113
18 -108 -5 -161 -29 -243 -106 -34 -32 -94 -84 -134 -115 -64 -51 -332 -337
-487 -521 -97 -114 -181 -324 -159 -399 8 -31 11 -32 58 -31 76 1 162 29 236
78 66 44 357 280 495 403 73 64 93 73 112 51 17 -21 72 -167 72 -191 0 -19
-123 -309 -366 -865 -155 -354 -214 -613 -214 -932 0 -103 6 -172 19 -236 22
-104 83 -238 120 -263 32 -21 254 -19 358 3 97 20 226 82 317 152 65 50 79 67
112 133 62 128 91 219 109 351 21 149 26 389 13 555 -16 198 -112 682 -194
980 -8 27 -14 80 -14 117 0 59 6 81 46 170 79 177 108 215 178 232 l29 7 -9
-148 c-12 -202 -9 -300 15 -419 29 -148 57 -197 134 -229 63 -26 124 2 178 85
149 228 265 400 269 400 3 0 12 -44 19 -97 7 -54 16 -101 19 -105 15 -15 157
-20 197 -6 50 17 64 51 64 164 1 44 4 122 7 172 l7 92 78 0 c44 0 79 -2 79 -5
0 -3 -10 -25 -22 -48 -16 -32 -23 -65 -26 -135 -12 -259 124 -444 393 -536
103 -35 204 -42 320 -22 50 8 119 20 155 26 76 12 281 108 362 169 59 44 207
193 258 259 18 24 34 41 36 39 2 -2 38 -156 79 -343 87 -392 90 -405 145 -584
73 -240 191 -651 230 -800 21 -80 50 -185 64 -235 54 -187 86 -426 86 -636 0
-96 4 -149 10 -149 15 0 193 69 202 78 3 4 2 97 -2 208 -11 245 -44 446 -135
814 -35 140 -77 323 -94 405 -30 145 -143 605 -195 790 -84 304 -126 533 -126
688 0 70 4 85 38 155 22 42 54 121 73 175 23 66 47 113 73 145 43 53 51 69 77
167 32 117 58 298 79 545 11 129 27 287 35 350 20 153 19 269 -4 425 -40 270
-145 538 -231 588 -30 18 -95 28 -124 20z m83 -460 c10 -21 22 -63 26 -93 3
-30 15 -113 27 -184 18 -118 19 -143 8 -280 -6 -83 -18 -200 -26 -261 -9 -60
-19 -139 -23 -176 -7 -69 -16 -86 -93 -167 -29 -30 -43 -40 -49 -31 -15 25
-20 145 -9 214 7 39 15 194 20 345 5 187 13 297 24 345 8 39 23 127 33 198 19
139 29 154 62 90z m-1019 -1823 c14 -4 22 -8 18 -9 -4 -1 -58 -8 -120 -16 -62
-9 -159 -25 -216 -35 -57 -11 -117 -20 -135 -20 l-32 1 25 14 c98 56 369 94
460 65z m-2261 -1065 c17 -60 38 -144 46 -185 8 -41 26 -129 40 -195 22 -98
27 -157 32 -327 10 -371 -26 -545 -140 -677 -23 -26 -64 -78 -90 -115 -61 -84
-116 -118 -184 -114 l-48 3 -32 65 c-43 86 -63 221 -63 429 0 289 32 443 141
684 28 61 86 196 129 298 85 199 119 265 130 252 4 -4 21 -57 39 -118z"/>
<path d="M4430 4278 c-19 -13 -38 -38 -46 -59 -13 -38 -49 -203 -90 -409 -79
-397 -174 -677 -248 -725 -41 -27 -147 -48 -221 -43 -84 6 -121 23 -193 92
-131 124 -232 457 -232 764 0 66 -1 70 -24 74 -15 3 -38 -4 -57 -16 -39 -24
-197 -221 -206 -256 -8 -31 97 -348 164 -493 l45 -100 9 -271 c5 -149 15 -309
23 -356 8 -47 13 -86 13 -86 -5 -4 -236 37 -311 55 -152 36 -193 70 -270 220
-82 160 -91 204 -75 365 13 140 9 192 -19 227 -30 36 -72 19 -140 -59 -83 -96
-128 -142 -139 -142 -6 0 -13 35 -17 79 -3 43 -13 99 -22 125 -14 42 -19 46
-48 46 -36 0 -129 -58 -147 -92 -8 -15 -10 -60 -5 -152 8 -150 -3 -245 -40
-363 -27 -86 -39 -98 -79 -83 -61 23 -82 123 -91 445 -4 132 -10 248 -15 257
-30 57 -82 63 -154 17 -26 -17 -105 -89 -175 -160 -89 -90 -141 -135 -173
-149 l-47 -21 -39 31 c-40 33 -48 35 -267 60 -191 21 -264 14 -648 -65 -114
-24 -196 -32 -196 -19 0 30 149 221 237 304 120 113 263 231 346 283 82 53
304 162 378 187 55 19 68 20 106 10 44 -13 108 -7 131 12 22 18 15 103 -11
133 -29 35 -81 35 -228 1 -178 -41 -450 -185 -645 -342 -213 -171 -355 -327
-468 -511 -60 -100 -81 -152 -91 -235 -7 -53 -5 -59 20 -84 23 -23 32 -26 69
-21 75 11 256 57 417 107 211 66 256 73 466 68 174 -3 179 -4 236 -32 71 -36
70 -45 -17 -136 -34 -36 -91 -103 -126 -150 -35 -47 -100 -125 -145 -175 -149
-165 -259 -314 -408 -551 -120 -191 -157 -265 -196 -389 -48 -157 -61 -249
-50 -371 14 -157 46 -225 136 -282 138 -89 289 -59 528 103 220 150 258 185
401 380 223 305 377 681 400 978 7 85 7 86 38 97 17 6 43 23 58 37 l28 27 48
-18 c81 -32 175 -49 225 -42 99 15 220 130 246 234 6 23 16 60 21 82 6 23 26
54 47 75 l37 36 19 -53 c40 -111 256 -401 342 -460 22 -15 83 -41 135 -59 84
-28 112 -32 247 -38 83 -3 154 -9 157 -12 12 -11 26 -155 35 -341 8 -162 13
-205 30 -242 22 -51 21 -50 73 -36 37 11 92 64 108 104 14 39 -6 464 -26 531
-15 50 -18 103 -19 327 -1 148 0 268 2 268 2 0 23 -10 46 -22 36 -20 57 -23
148 -23 98 0 110 2 165 31 79 41 237 157 260 191 l18 28 13 -114 c64 -571 142
-978 279 -1453 53 -183 124 -434 160 -558 75 -266 133 -395 172 -385 59 15
138 50 159 71 46 46 19 154 -89 347 -152 272 -247 623 -333 1232 -8 55 -22
141 -30 190 -41 240 -57 457 -62 827 -4 295 -2 396 11 520 20 189 45 568 39
585 -8 21 -77 15 -113 -9z m-2603 -1103 c-6 -56 -46 -118 -156 -243 -44 -51
-81 -97 -81 -103 0 -6 -14 -1 -31 11 -28 21 -30 26 -24 64 9 55 62 131 155
219 118 114 146 124 137 52z m-51 -391 c-14 -68 -25 -101 -49 -156 -15 -36
-23 -35 -31 3 -11 54 -7 99 11 127 26 41 76 102 80 98 2 -1 -3 -34 -11 -72z
m-354 -85 c15 -19 26 -72 45 -200 l25 -174 -21 -145 c-45 -305 -83 -407 -254
-695 -62 -102 -90 -137 -192 -237 -100 -97 -137 -127 -222 -173 -150 -83 -241
-93 -302 -33 -47 46 -64 113 -59 227 6 112 13 132 125 330 237 419 268 469
491 781 284 395 246 352 299 348 36 -2 50 -9 65 -29z"/>
<path d="M4755 3535 c-59 -21 -66 -36 -63 -140 l3 -90 35 3 c46 4 108 41 175
107 56 54 65 78 45 116 -9 16 -21 19 -83 19 -40 -1 -90 -7 -112 -15z"/>
<path d="M4643 3196 c-58 -26 -60 -37 -62 -296 0 -170 3 -254 14 -305 8 -38
21 -124 29 -190 17 -136 21 -151 49 -182 26 -29 64 -29 122 -1 50 24 62 48 46
90 -11 30 -64 328 -79 448 -11 84 -10 253 2 345 6 44 4 65 -6 78 -18 24 -76
30 -115 13z"/>
</g>
</svg>
